<svg width="137" height="42" viewBox="0 0 137 42" fill="none" xmlns="http://www.w3.org/2000/svg">
<path fill-rule="evenodd" clip-rule="evenodd" d="M32.8955 27.7794C31.9459 27.9733 31.3571 28.4964 28.4553 29.3755C25.6453 30.0923 20.8123 29.8922 16.9454 28.2034C13.9557 26.9542 9.43846 25.0143 9.43846 25.0143L6.26826 23.595L5.61603 25.6802C5.61603 25.6802 10.5927 27.5741 14.5829 30.2253C16.391 31.4266 21.3952 34.5827 21.3952 34.5827C21.3952 34.5827 23.7744 36.323 24.8574 36.3165C25.8 36.3001 26.5912 35.296 27.8477 34.0906C29.3829 32.7133 30.0845 31.9418 31.7557 30.5639C32.8688 29.5664 33.436 29.0468 33.5699 28.8057C33.8923 28.2244 33.4397 27.6707 32.8955 27.7794Z" fill="#90288C"/>
<path fill-rule="evenodd" clip-rule="evenodd" d="M33.312 14.4872C33.316 9.39223 29.8725 3.21267 19.8307 3.09546C10.9666 3.33657 6.35699 8.20411 6.3609 14.497C6.60048 23.4784 14.6418 25.8881 19.8422 25.887C28.3635 25.8836 33.5436 20.9152 33.312 14.4872ZM19.8115 23.65C17.0993 23.6509 12.7827 22.4181 12.7827 14.465C12.7808 9.39223 14.7585 5.3958 19.8078 5.27451C25.4405 5.39042 26.8373 9.21656 26.8398 14.4616C26.9604 19.6392 25.1553 23.7655 19.8115 23.65Z" fill="#90288C"/>
<mask id="mask0_119_553" style="mask-type:luminance" maskUnits="userSpaceOnUse" x="0" y="0" width="137" height="42">
<path fill-rule="evenodd" clip-rule="evenodd" d="M0 42H136.977V0H0V42Z" fill="white"/>
</mask>
<g mask="url(#mask0_119_553)">
<path fill-rule="evenodd" clip-rule="evenodd" d="M0 41.9989H1.29563V40.697H0V41.9989Z" fill="#90288C"/>
<path fill-rule="evenodd" clip-rule="evenodd" d="M3.16583 41.9989H4.46088V40.697H3.16583V41.9989Z" fill="#90288C"/>
<path fill-rule="evenodd" clip-rule="evenodd" d="M6.3324 41.9989H7.62889V40.697H6.3324V41.9989Z" fill="#90288C"/>
<path fill-rule="evenodd" clip-rule="evenodd" d="M9.50018 41.9989H10.7952V40.697H9.50018V41.9989Z" fill="#90288C"/>
<path fill-rule="evenodd" clip-rule="evenodd" d="M12.6661 41.9989H13.9618V40.697H12.6661V41.9989Z" fill="#90288C"/>
<path fill-rule="evenodd" clip-rule="evenodd" d="M15.8329 41.9989H17.1278V40.697H15.8329V41.9989Z" fill="#90288C"/>
<path fill-rule="evenodd" clip-rule="evenodd" d="M18.9995 41.9989H20.2948V40.697H18.9995V41.9989Z" fill="#90288C"/>
<path fill-rule="evenodd" clip-rule="evenodd" d="M22.1659 41.9989H23.4621V40.697H22.1659V41.9989Z" fill="#90288C"/>
<path fill-rule="evenodd" clip-rule="evenodd" d="M25.3325 41.9989H26.6266V40.697H25.3325V41.9989Z" fill="#90288C"/>
<path fill-rule="evenodd" clip-rule="evenodd" d="M28.499 41.9989H29.7941V40.697H28.499V41.9989Z" fill="#90288C"/>
<path fill-rule="evenodd" clip-rule="evenodd" d="M31.6646 41.9989H32.9617V40.697H31.6646V41.9989Z" fill="#90288C"/>
<path fill-rule="evenodd" clip-rule="evenodd" d="M34.8325 41.9989H36.1271V40.697H34.8325V41.9989Z" fill="#90288C"/>
<path fill-rule="evenodd" clip-rule="evenodd" d="M37.9957 42H39.2921V40.6997H37.9957V42Z" fill="#90288C"/>
<path fill-rule="evenodd" clip-rule="evenodd" d="M1.29186 38.1606H38.0063V1.29763H1.29186V38.1606ZM0 39.4571H39.2976V0H0V39.4571Z" fill="#90288C"/>
<path fill-rule="evenodd" clip-rule="evenodd" d="M135.822 39.4944C135.998 39.4944 136.167 39.5389 136.336 39.6288C136.499 39.7188 136.63 39.8473 136.723 40.0121C136.816 40.1796 136.862 40.3563 136.862 40.5362C136.862 40.7174 136.817 40.887 136.729 41.0535C136.633 41.2201 136.506 41.348 136.34 41.4413C136.176 41.5321 136.004 41.578 135.824 41.5785C135.644 41.5776 135.471 41.5325 135.306 41.4409C135.142 41.3502 135.012 41.2201 134.921 41.0558C134.828 40.8892 134.784 40.7174 134.782 40.5362C134.781 40.3563 134.828 40.1818 134.921 40.0121C135.016 39.8473 135.145 39.7188 135.312 39.6292C135.477 39.5399 135.649 39.4944 135.822 39.4944ZM135.822 39.6682C135.676 39.6682 135.536 39.7055 135.4 39.7812C135.258 39.8559 135.149 39.964 135.074 40.1033C134.997 40.2413 134.958 40.3876 134.958 40.5375C134.958 40.6866 134.996 40.8304 135.073 40.9672C135.149 41.1048 135.255 41.2121 135.394 41.2892C135.529 41.3648 135.673 41.4035 135.823 41.4013C135.971 41.4022 136.115 41.3651 136.253 41.2892C136.393 41.2113 136.499 41.1048 136.576 40.9668C136.65 40.8292 136.689 40.6857 136.689 40.535C136.687 40.3867 136.649 40.2404 136.571 40.1024C136.496 39.9632 136.386 39.8547 136.248 39.7796C136.108 39.7055 135.967 39.6695 135.822 39.6682Z" fill="#008C99"/>
<path fill-rule="evenodd" clip-rule="evenodd" d="M135.366 41.1114L135.364 39.9935L135.747 39.996C135.878 39.996 135.975 40.0034 136.032 40.0248C136.089 40.0462 136.137 40.0819 136.173 40.134C136.208 40.1846 136.224 40.2389 136.224 40.2972C136.224 40.3777 136.196 40.4496 136.138 40.5112C136.079 40.5716 136.002 40.6053 135.904 40.6126C135.946 40.6299 135.976 40.6488 136.001 40.673C136.045 40.7161 136.101 40.7897 136.165 40.8915L136.303 41.1119L136.081 41.1114L135.981 40.9352C135.903 40.7972 135.841 40.7112 135.793 40.6763C135.76 40.6488 135.712 40.6378 135.649 40.6373H135.542V41.111L135.366 41.1114ZM135.542 40.4816L135.765 40.4829C135.87 40.4829 135.941 40.4657 135.978 40.4349C136.019 40.4045 136.037 40.3613 136.037 40.3111C136.037 40.2775 136.03 40.2482 136.012 40.2224C135.993 40.1961 135.966 40.1768 135.932 40.1629C135.9 40.1513 135.838 40.1443 135.749 40.144H135.542V40.4816Z" fill="#008C99"/>
<path fill-rule="evenodd" clip-rule="evenodd" d="M47.9122 38.3767V39.1594C47.3924 39.4441 46.7922 39.5865 46.1117 39.5865C45.5587 39.5865 45.0898 39.4749 44.7048 39.2523C44.3194 39.0291 44.0145 38.7218 43.79 38.3303C43.5656 37.9388 43.4534 37.5152 43.4534 37.06C43.4534 36.3364 43.7105 35.7278 44.2245 35.2345C44.7383 34.741 45.3721 34.4943 46.1259 34.4943C46.6457 34.4943 47.2235 34.6305 47.8591 34.9033V35.6687C47.2801 35.3364 46.7142 35.1703 46.1615 35.1703C45.5943 35.1703 45.1234 35.3499 44.749 35.7093C44.3744 36.0688 44.1871 36.5192 44.1871 37.06C44.1871 37.6056 44.3715 38.0538 44.74 38.405C45.1086 38.7562 45.58 38.9316 46.1541 38.9316C46.7544 38.9316 47.3404 38.7469 47.9122 38.3767Z" fill="#008C99"/>
<path fill-rule="evenodd" clip-rule="evenodd" d="M51.8448 35.163C51.2781 35.163 50.8125 35.3412 50.4476 35.697C50.083 36.0527 49.9004 36.5071 49.9004 37.06C49.9004 37.5961 50.0835 38.0419 50.4495 38.3981C50.8154 38.7538 51.2734 38.9317 51.8235 38.9317C52.3759 38.9317 52.8368 38.7502 53.2063 38.3875C53.5758 38.0243 53.7605 37.5722 53.7605 37.0314C53.7605 36.5048 53.5758 36.0618 53.2063 35.7023C52.8368 35.3428 52.3829 35.163 51.8448 35.163ZM51.8164 34.4873C52.5813 34.4873 53.2183 34.7303 53.7275 35.2163C54.2362 35.7028 54.4906 36.3124 54.4906 37.0456C54.4906 37.7786 54.234 38.3853 53.7199 38.8661C53.2069 39.3463 52.559 39.5865 51.7776 39.5865C51.0312 39.5865 50.4094 39.3463 49.9126 38.8661C49.4156 38.3853 49.1671 37.7835 49.1671 37.06C49.1671 36.3172 49.4172 35.7028 49.9178 35.2163C50.4185 34.7303 51.0512 34.4873 51.8164 34.4873Z" fill="#008C99"/>
<path fill-rule="evenodd" clip-rule="evenodd" d="M59.9029 34.5582H60.5657V39.5294H59.8532V35.6613L58.3308 37.5831H58.2L56.6598 35.6613V39.5294H55.9507V34.5582H56.6217L58.2673 36.6L59.9029 34.5582Z" fill="#008C99"/>
<path fill-rule="evenodd" clip-rule="evenodd" d="M63.6421 35.1842H62.9084V36.7395H63.6843C63.9729 36.7395 64.1951 36.6714 64.3509 36.535C64.5068 36.3986 64.5847 36.2035 64.5847 35.9496C64.5847 35.4394 64.2705 35.1842 63.6421 35.1842ZM62.1959 39.5293V34.5511H63.766C64.2387 34.5511 64.6154 34.6788 64.8968 34.9352C65.1778 35.1917 65.3186 35.5355 65.3186 35.9673C65.3186 36.2568 65.2463 36.5128 65.1024 36.7359C64.9581 36.959 64.761 37.1207 64.5105 37.2219C64.26 37.3225 63.9009 37.3731 63.433 37.3731H62.9084V39.5293H62.1959Z" fill="#008C99"/>
<path fill-rule="evenodd" clip-rule="evenodd" d="M68.579 37.4229L67.7801 35.6222L67.0392 37.4229H68.579ZM67.5375 34.5298H68.0354L70.2556 39.5294H69.5304L68.8702 38.0562H66.7576L66.139 39.5294H65.4106L67.5375 34.5298Z" fill="#008C99"/>
<path fill-rule="evenodd" clip-rule="evenodd" d="M74.8421 33.2058C74.8398 33.493 74.7736 33.7174 74.6437 33.8784C74.5444 34.004 74.4205 34.0669 74.2716 34.0669C74.1415 34.0669 73.9667 34.0198 73.7469 33.9246C73.5272 33.8298 73.3618 33.7823 73.2508 33.7823C73.1893 33.7823 73.1361 33.8061 73.0911 33.8537C73.046 33.9009 73.0194 33.9723 73.0098 34.0669H72.712C72.7498 33.7325 72.8183 33.509 72.9176 33.3965C73.0168 33.2835 73.1421 33.2272 73.2933 33.2272C73.4303 33.2272 73.6537 33.29 73.9632 33.4157C74.1214 33.4799 74.2349 33.5118 74.3034 33.5118C74.3693 33.5118 74.4258 33.4888 74.4719 33.4426C74.5178 33.3965 74.5492 33.3176 74.5657 33.2058H74.8421ZM75.335 34.5583H76.0082V39.5293H75.3983L72.0882 35.7007V39.5293H71.4218V34.5583H71.9962L75.335 38.4195V34.5583Z" fill="#008C99"/>
<path fill-rule="evenodd" clip-rule="evenodd" d="M79.0244 33.1241L78.2237 34.1919H77.8264L78.3048 33.1241H79.0244ZM77.6776 39.5294H78.3865V34.5582H77.6776V39.5294Z" fill="#008C99"/>
<path fill-rule="evenodd" clip-rule="evenodd" d="M82.7101 37.4229L81.911 35.6222L81.1703 37.4229H82.7101ZM81.6687 34.5298H82.1668L84.387 39.5294H83.6615L83.0016 38.0562H80.889L80.2704 39.5294H79.5418L81.6687 34.5298Z" fill="#008C99"/>
<path fill-rule="evenodd" clip-rule="evenodd" d="M89.7532 35.1917H88.867V38.889H89.7743C90.1287 38.889 90.4041 38.8647 90.6001 38.8158C90.796 38.7673 90.96 38.7056 91.0911 38.6309C91.2223 38.5563 91.3421 38.4642 91.4507 38.3553C91.8005 37.9991 91.9755 37.5496 91.9755 37.0065C91.9755 36.4726 91.7958 36.0375 91.4367 35.7002C91.3043 35.5745 91.1525 35.4713 90.9813 35.3908C90.8098 35.3102 90.6473 35.2568 90.4939 35.2307C90.3402 35.2048 90.0934 35.1917 89.7532 35.1917ZM88.1581 39.5223V34.5582H89.8276C90.5008 34.5582 91.0339 34.6597 91.426 34.8622C91.8182 35.0652 92.1301 35.3637 92.3618 35.7574C92.5933 36.1514 92.7091 36.5807 92.7091 37.0456C92.7091 37.3774 92.6453 37.6955 92.5174 37.9991C92.3902 38.3032 92.2081 38.5698 91.9719 38.7998C91.7309 39.0372 91.4507 39.2163 91.1316 39.337C90.9452 39.4111 90.7737 39.4599 90.6179 39.4849C90.4619 39.51 90.1644 39.5223 89.7245 39.5223H88.1581Z" fill="#008C99"/>
<path fill-rule="evenodd" clip-rule="evenodd" d="M94.1975 34.5582H97.0047V35.1917H94.9067V36.7075H96.934V37.3447H94.9067V38.889H97.0721V39.5225H94.1975V34.5582Z" fill="#008C99"/>
<path fill-rule="evenodd" clip-rule="evenodd" d="M102.275 37.4466L101.736 37.1179C101.398 36.9108 101.158 36.7072 101.015 36.5067C100.872 36.3061 100.801 36.0753 100.801 35.8145C100.801 35.423 100.936 35.1049 101.207 34.8606C101.477 34.6162 101.828 34.4941 102.261 34.4941C102.674 34.4941 103.054 34.6108 103.399 34.8437V35.6513C103.042 35.3071 102.658 35.1346 102.247 35.1346C102.015 35.1346 101.825 35.1884 101.676 35.296C101.527 35.4036 101.453 35.5412 101.453 35.7089C101.453 35.8576 101.508 35.9973 101.617 36.1271C101.727 36.2573 101.903 36.3937 102.146 36.5366L102.688 36.8583C103.292 37.2201 103.594 37.6816 103.594 38.2412C103.594 38.6401 103.461 38.9638 103.195 39.2128C102.929 39.462 102.583 39.5865 102.158 39.5865C101.669 39.5865 101.224 39.4358 100.822 39.1339V38.2297C101.205 38.7167 101.648 38.96 102.151 38.96C102.373 38.96 102.558 38.8979 102.706 38.774C102.853 38.6498 102.927 38.4946 102.927 38.3076C102.927 38.005 102.71 37.7181 102.275 37.4466Z" fill="#008C99"/>
<path fill-rule="evenodd" clip-rule="evenodd" d="M104.976 34.5582H107.783V35.1917H105.685V36.7075H107.712V37.3447H105.685V38.889H107.85V39.5225H104.976V34.5582Z" fill="#008C99"/>
<path fill-rule="evenodd" clip-rule="evenodd" d="M111.884 37.0814H113.546V39.1879C112.936 39.4534 112.332 39.5865 111.732 39.5865C110.912 39.5865 110.256 39.3461 109.766 38.8659C109.276 38.3853 109.031 37.793 109.031 37.0884C109.031 36.3456 109.285 35.7276 109.793 35.2344C110.301 34.7409 110.938 34.4941 111.703 34.4941C111.982 34.4941 112.247 34.5245 112.497 34.5849C112.747 34.6452 113.064 34.7562 113.447 34.9176V35.6434C112.856 35.2997 112.27 35.1275 111.689 35.1275C111.148 35.1275 110.692 35.3124 110.321 35.6826C109.95 36.0527 109.764 36.5071 109.764 37.0456C109.764 37.6102 109.95 38.0719 110.321 38.4299C110.692 38.7883 111.169 38.9674 111.753 38.9674C112.036 38.9674 112.375 38.9021 112.77 38.7714L112.837 38.7502V37.7144H111.884V37.0814Z" fill="#008C99"/>
<path fill-rule="evenodd" clip-rule="evenodd" d="M118.629 34.5582H119.341V37.3801C119.341 37.7621 119.313 38.0506 119.258 38.2449C119.202 38.4395 119.134 38.6015 119.052 38.7308C118.971 38.8598 118.871 38.9757 118.753 39.0775C118.361 39.4169 117.848 39.5865 117.214 39.5865C116.569 39.5865 116.052 39.418 115.662 39.0812C115.544 38.977 115.444 38.8598 115.362 38.7308C115.281 38.6015 115.213 38.4428 115.16 38.2555C115.108 38.0682 115.081 37.774 115.081 37.3731V34.5582H115.793V37.3801C115.793 37.8476 115.847 38.1726 115.953 38.3553C116.059 38.5376 116.221 38.6844 116.438 38.7945C116.656 38.905 116.912 38.9601 117.207 38.9601C117.628 38.9601 117.971 38.85 118.235 38.6293C118.375 38.5106 118.475 38.3706 118.536 38.209C118.598 38.048 118.629 37.7715 118.629 37.3801V34.5582Z" fill="#008C99"/>
<path fill-rule="evenodd" clip-rule="evenodd" d="M121.868 35.1629H121.655V36.7326H121.925C122.284 36.7326 122.53 36.7018 122.664 36.6397C122.797 36.578 122.901 36.4854 122.976 36.3603C123.05 36.236 123.087 36.0942 123.087 35.9353C123.087 35.7786 123.046 35.637 122.963 35.51C122.881 35.3831 122.764 35.2935 122.614 35.2414C122.464 35.1892 122.215 35.1629 121.868 35.1629ZM120.947 39.5293V34.5582H122.187C122.688 34.5582 123.086 34.6827 123.38 34.9315C123.674 35.1809 123.821 35.5177 123.821 35.9425C123.821 36.2319 123.749 36.4819 123.605 36.6931C123.461 36.9044 123.254 37.0622 122.985 37.1663C123.143 37.2711 123.298 37.4134 123.449 37.5937C123.6 37.774 123.813 38.0883 124.087 38.5365C124.26 38.8192 124.398 39.0315 124.502 39.1736L124.764 39.5293H123.92L123.704 39.2019C123.697 39.19 123.683 39.17 123.662 39.1416L123.524 38.9457L123.305 38.5826L123.067 38.1943C122.921 37.99 122.787 37.8278 122.665 37.707C122.543 37.5863 122.433 37.4992 122.335 37.4458C122.237 37.3924 122.072 37.3655 121.84 37.3655H121.655V39.5293H120.947Z" fill="#008C99"/>
<path fill-rule="evenodd" clip-rule="evenodd" d="M127.934 35.163C127.368 35.163 126.902 35.3412 126.537 35.697C126.173 36.0527 125.99 36.5071 125.99 37.06C125.99 37.5961 126.173 38.0419 126.539 38.3981C126.905 38.7538 127.363 38.9317 127.913 38.9317C128.466 38.9317 128.927 38.7502 129.296 38.3875C129.665 38.0243 129.85 37.5722 129.85 37.0314C129.85 36.5048 129.665 36.0618 129.296 35.7023C128.927 35.3428 128.472 35.163 127.934 35.163ZM127.906 34.4873C128.671 34.4873 129.308 34.7303 129.817 35.2163C130.326 35.7028 130.58 36.3124 130.58 37.0456C130.58 37.7786 130.324 38.3853 129.81 38.8661C129.296 39.3463 128.648 39.5865 127.867 39.5865C127.121 39.5865 126.499 39.3463 126.002 38.8661C125.505 38.3853 125.257 37.7835 125.257 37.06C125.257 36.3172 125.507 35.7028 126.007 35.2163C126.508 34.7303 127.141 34.4873 127.906 34.4873Z" fill="#008C99"/>
<path fill-rule="evenodd" clip-rule="evenodd" d="M133.281 37.4466L132.742 37.1179C132.404 36.9108 132.164 36.7072 132.021 36.5067C131.878 36.3061 131.807 36.0753 131.807 35.8145C131.807 35.423 131.942 35.1049 132.213 34.8606C132.483 34.6162 132.834 34.4941 133.267 34.4941C133.68 34.4941 134.06 34.6108 134.405 34.8437V35.6513C134.048 35.3071 133.664 35.1346 133.253 35.1346C133.021 35.1346 132.831 35.1884 132.682 35.296C132.533 35.4036 132.459 35.5412 132.459 35.7089C132.459 35.8576 132.514 35.9973 132.623 36.1271C132.733 36.2573 132.909 36.3937 133.152 36.5366L133.694 36.8583C134.298 37.2201 134.6 37.6816 134.6 38.2412C134.6 38.6401 134.467 38.9638 134.201 39.2128C133.935 39.462 133.59 39.5865 133.164 39.5865C132.675 39.5865 132.23 39.4358 131.828 39.1339V38.2297C132.211 38.7167 132.654 38.96 133.157 38.96C133.379 38.96 133.564 38.8979 133.711 38.774C133.859 38.6498 133.933 38.4946 133.933 38.3076C133.933 38.005 133.716 37.7181 133.281 37.4466Z" fill="#008C99"/>
<path fill-rule="evenodd" clip-rule="evenodd" d="M53.74 9.06936C51.509 9.06936 49.6654 9.7914 48.2094 11.2356C46.7532 12.6798 46.0253 14.499 46.0253 16.6937C46.0253 18.8313 46.7579 20.6109 48.2236 22.031C49.689 23.4511 51.5279 24.1615 53.74 24.1615C55.9239 24.1615 57.7629 23.4349 59.2567 21.9808C60.7504 20.5276 61.4974 18.7364 61.4974 16.6082C61.4974 14.4324 60.7646 12.6317 59.2992 11.2065C57.8336 9.78136 55.9807 9.06936 53.74 9.06936ZM63.9673 27.8099L61.1164 30.5885C60.2274 30.5411 59.2984 30.3823 58.3292 30.1114C57.3598 29.8409 56.3766 29.4674 55.379 28.9925C54.3812 28.5174 53.0502 27.7053 51.3858 26.5557C48.9742 26.1187 46.9859 24.9692 45.4209 23.1068C43.8553 21.2447 43.0728 19.0975 43.0728 16.6652C43.0728 13.6914 44.0802 11.2305 46.0944 9.28285C48.1086 7.33517 50.6573 6.36096 53.74 6.36096C56.804 6.36096 59.3501 7.32848 61.3788 9.26162C63.4073 11.1948 64.4215 13.6248 64.4215 16.5512C64.4215 19.0119 63.6556 21.1737 62.1233 23.036C60.5912 24.898 58.6098 26.0712 56.1794 26.5557L56.9312 26.8408C59.2672 27.7434 60.9505 28.1942 61.9813 28.1942C62.5487 28.1942 63.2105 28.0663 63.9673 27.8099Z" fill="#008C99"/>
<path fill-rule="evenodd" clip-rule="evenodd" d="M75.0556 26.5557V24.8742C74.5067 25.4771 73.8796 25.9461 73.175 26.2813C72.4697 26.6161 71.7672 26.7838 71.0669 26.7838C70.2436 26.7838 69.4844 26.577 68.7885 26.164C68.0934 25.7504 67.5679 25.1898 67.2132 24.4823C66.8582 23.7748 66.6809 22.5989 66.6809 20.9547V13.4443H69.2643V20.9167C69.2643 22.2926 69.4605 23.2539 69.8534 23.7993C70.2459 24.3448 70.9342 24.6175 71.9186 24.6175C73.1485 24.6175 74.1945 24.0144 75.0556 22.808V13.4443H77.6389V26.5557H75.0556Z" fill="#008C99"/>
<path fill-rule="evenodd" clip-rule="evenodd" d="M89.1346 6.33313L85.9266 10.6085H84.3367L86.253 6.33313H89.1346ZM87.2467 23.9619V20.0716L85.5149 20.7411C84.6348 21.0926 84.0126 21.4463 83.6486 21.8029C83.2839 22.159 83.1018 22.6033 83.1018 23.1354C83.1018 23.6768 83.2745 24.1189 83.6201 24.461C83.9652 24.803 84.4125 24.974 84.9613 24.974C85.7846 24.974 86.5461 24.6365 87.2467 23.9619ZM89.7875 18.6744V24.2469C89.7875 24.6935 89.9386 24.9172 90.2417 24.9172C90.554 24.9172 91.0413 24.6841 91.7038 24.2186V25.8002C91.1167 26.1808 90.6461 26.4395 90.2916 26.5771C89.9364 26.7145 89.5652 26.7837 89.1771 26.7837C88.07 26.7837 87.417 26.3467 87.2183 25.4726C86.1202 26.3277 84.9519 26.7552 83.7122 26.7552C82.8037 26.7552 82.0465 26.454 81.441 25.8504C80.8354 25.2469 80.5327 24.4889 80.5327 23.5769C80.5327 22.7509 80.8282 22.012 81.4196 21.3608C82.0111 20.7103 82.8511 20.1951 83.9393 19.8145L87.2467 18.6744V17.9763C87.2467 16.3992 86.461 15.6105 84.8903 15.6105C83.4801 15.6105 82.1083 16.3422 80.7739 17.8053V14.9689C81.7768 13.782 83.2201 13.1878 85.1033 13.1878C86.5133 13.1878 87.6441 13.5583 88.4958 14.2994C88.7797 14.537 89.0352 14.8533 89.2623 15.2473C89.4894 15.6412 89.6335 16.0359 89.6954 16.4299C89.7565 16.8244 89.7875 17.5728 89.7875 18.6744Z" fill="#008C99"/>
<path fill-rule="evenodd" clip-rule="evenodd" d="M93.574 26.5557H96.1575V6.64612H93.574V26.5557Z" fill="#008C99"/>
<path fill-rule="evenodd" clip-rule="evenodd" d="M100.245 26.5557H102.828V13.4443H100.245V26.5557ZM101.522 7.92932C101.948 7.92932 102.312 8.0762 102.615 8.37083C102.918 8.66532 103.069 9.02641 103.069 9.45382C103.069 9.87191 102.918 10.233 102.615 10.5371C102.312 10.841 101.948 10.993 101.522 10.993C101.125 10.993 100.775 10.8388 100.472 10.5298C100.169 10.2212 100.018 9.86246 100.018 9.45382C100.018 9.05491 100.169 8.70109 100.472 8.39206C100.775 8.08362 101.125 7.92932 101.522 7.92932Z" fill="#008C99"/>
<path fill-rule="evenodd" clip-rule="evenodd" d="M104.743 15.525L109.598 10.7366V13.4442H113.728V15.7815H109.598V22.1986C109.598 23.697 110.217 24.4464 111.457 24.4464C112.384 24.4464 113.364 24.138 114.395 23.5199V25.9431C113.402 26.5037 112.318 26.7837 111.145 26.7837C109.962 26.7837 108.978 26.4373 108.192 25.743C107.946 25.5346 107.743 25.2992 107.582 25.0378C107.421 24.7768 107.286 24.4348 107.177 24.0117C107.069 23.5891 107.014 22.7839 107.014 21.5962V15.7815H104.743V15.525Z" fill="#008C99"/>
<path fill-rule="evenodd" clip-rule="evenodd" d="M122.416 23.9619V20.0716L120.684 20.7411C119.804 21.0926 119.182 21.4463 118.818 21.8029C118.453 22.159 118.271 22.6033 118.271 23.1353C118.271 23.6768 118.444 24.1189 118.789 24.461C119.135 24.803 119.582 24.974 120.131 24.974C120.954 24.974 121.716 24.6365 122.416 23.9619ZM124.957 18.6744V24.2469C124.957 24.6935 125.108 24.917 125.411 24.917C125.723 24.917 126.211 24.6841 126.873 24.2185V25.8002C126.286 26.1808 125.816 26.4395 125.461 26.5769C125.106 26.7145 124.734 26.7837 124.347 26.7837C123.239 26.7837 122.586 26.3466 122.388 25.4725C121.29 26.3277 120.121 26.7552 118.882 26.7552C117.973 26.7552 117.216 26.454 116.61 25.8504C116.005 25.2468 115.702 24.4889 115.702 23.5769C115.702 22.7509 115.998 22.012 116.589 21.3608C117.181 20.7103 118.02 20.1951 119.109 19.8143L122.416 18.6744V17.9763C122.416 16.3992 121.63 15.6105 120.06 15.6105C118.65 15.6105 117.278 16.3422 115.943 17.8053V14.9689C116.946 13.782 118.39 13.1877 120.273 13.1877C121.683 13.1877 122.814 13.5583 123.665 14.2994C123.949 14.5369 124.205 14.8533 124.432 15.2473C124.659 15.6412 124.803 16.0359 124.865 16.4299C124.926 16.8244 124.957 17.5728 124.957 18.6744Z" fill="#008C99"/>
<path fill-rule="evenodd" clip-rule="evenodd" d="M128.134 25.6151V22.8217C128.863 23.3348 129.608 23.7507 130.37 24.0686C131.131 24.3872 131.773 24.5459 132.293 24.5459C132.833 24.5459 133.296 24.4134 133.684 24.1469C134.072 23.8815 134.266 23.563 134.266 23.1923C134.266 22.8123 134.141 22.4966 133.89 22.2444C133.639 21.993 133.097 21.6297 132.265 21.1546C130.599 20.2236 129.508 19.4277 128.993 18.7671C128.477 18.107 128.219 17.3872 128.219 16.6081C128.219 15.6011 128.609 14.7794 129.39 14.1429C130.171 13.5064 131.176 13.1877 132.407 13.1877C133.684 13.1877 134.995 13.5488 136.338 14.2709V16.8362C134.806 15.905 133.551 15.4395 132.577 15.4395C132.075 15.4395 131.671 15.5468 131.363 15.7609C131.056 15.9744 130.902 16.2577 130.902 16.6092C130.902 16.9138 131.041 17.2045 131.32 17.48C131.598 17.7561 132.088 18.088 132.789 18.4776L133.711 19.0046C135.888 20.2397 136.977 21.6073 136.977 23.1079C136.977 24.181 136.558 25.0623 135.721 25.7509C134.884 26.4395 133.807 26.7837 132.492 26.7837C131.716 26.7837 131.025 26.7004 130.419 26.5344C129.814 26.3685 129.052 26.0615 128.134 25.6151Z" fill="#008C99"/>
</g>
</svg>
